<svg width="691" height="869" viewBox="0 0 691 869" fill="none" xmlns="http://www.w3.org/2000/svg">
<path d="M262.489 435.236C265.327 441.173 266.185 448.057 264.433 454.566C262.681 461.076 259.953 467.241 256.25 473.062C252.546 478.883 247.868 484.36 243.218 488.201C238.224 493.018 233.919 495.885 229.959 497.777C224.679 500.299 219.743 501.846 214.177 502.074C208.926 502.962 203.705 502.215 199.143 501.152C194.581 500.09 189.389 497.708 185.517 494.695C181.644 491.683 178.117 487.696 175.593 482.418C173.701 478.459 173.474 472.895 174.881 467.361C176.289 461.826 179.362 454.686 183.754 446.915C185.448 443.674 186.798 441.409 187.487 439.459C188.176 437.509 188.865 435.559 190.53 433.953C191.535 432.663 193.199 431.057 194.864 429.452C197.16 429.166 200.46 427.589 203.76 426.013C204.42 425.698 206.4 424.752 208.035 424.781C210.331 424.495 212.626 424.209 214.922 423.922C217.217 423.636 219.828 424.01 222.123 423.724C224.734 424.097 226.37 424.126 228.98 424.5C244.476 417.908 255.866 421.381 262.489 435.236ZM285.185 99.4322C295.908 121.863 300.779 142.227 299.797 160.524C298.815 178.821 294.592 195.426 285.491 210.308C281.788 216.129 277.08 223.24 271.741 229.032C266.058 235.798 260.059 241.905 253.716 248.988C247.057 255.41 240.054 262.807 232.735 269.545C225.416 276.283 217.753 283.995 210.434 290.733C210.948 298.591 212.122 306.134 213.296 313.677C214.785 321.88 216.274 330.083 219.054 339.29C220.257 345.198 220.829 349.787 219.766 354.347C219.363 358.591 217.324 362.807 214.97 366.362C212.616 369.918 209.287 373.129 204.322 376.311C200.017 379.178 194.392 382.675 188.452 385.513C185.812 386.774 182.541 386.716 179.615 385.682C176.374 383.989 173.792 381.981 170.895 379.313C167.998 376.645 165.446 373.002 163.209 370.019C160.972 367.035 159.395 363.737 158.134 361.098C156.241 357.139 154.349 353.181 153.432 349.567C152.515 345.953 151.283 341.68 151.371 336.776C150.483 331.527 150.6 324.988 150.086 317.13C150.233 308.956 150.093 298.488 150.327 285.41C153.399 278.27 156.787 271.789 160.491 265.968C164.194 260.147 168.557 254.011 172.576 248.85C175.245 245.954 179.264 240.793 184.602 235.001C190.601 228.894 196.284 222.127 202.283 216.02C208.942 209.598 214.625 202.831 219.964 197.039C225.302 191.247 229.636 186.746 232.306 183.85C234.315 181.269 235.694 177.369 236.412 173.785C237.131 170.2 237.219 165.296 237.622 161.051C237.709 156.147 236.793 152.533 235.905 147.284C234.673 143.011 233.44 138.737 231.548 134.779C230.287 132.14 228.05 129.157 226.157 125.198C223.605 121.555 221.368 118.572 218.156 115.244C215.604 111.601 212.707 108.933 210.47 105.95C208.233 102.967 206.627 101.303 205.651 100.958C203.07 98.95 200.803 97.6014 196.557 97.1986C192.971 96.4806 189.04 96.7376 185.109 96.9946C181.178 97.2516 177.563 98.1684 173.287 99.4004C169.672 100.317 166.372 101.894 163.072 103.47C157.791 105.992 153.171 108.199 148.551 110.406C144.591 112.298 140.946 114.849 137.617 118.061C134.632 120.297 131.618 124.168 129.264 127.723C126.91 131.279 124.872 135.494 123.464 141.029C123.119 142.004 123.405 144.298 124.322 147.912C125.584 150.551 125.21 153.161 125.151 156.43C125.093 159.7 124.374 163.285 122.68 166.525C120.986 169.765 117.972 173.636 113.323 177.478C108.674 181.32 103.049 184.817 95.1286 188.6C79.2881 196.167 67.8986 192.694 60.6448 177.52C58.4371 172.902 57.2342 166.994 57.3512 160.455C57.4682 153.916 58.9052 146.747 60.6869 138.602C62.784 131.117 66.2011 123.002 69.6183 114.887C73.6954 106.456 78.088 98.685 83.7713 91.9182C88.1346 85.782 91.4934 80.9361 95.4827 77.4096C98.4967 73.5387 102.801 70.672 106.446 68.1205C110.091 65.5691 114.396 62.7023 119.016 60.4953C123.636 58.2883 128.916 55.766 135.861 51.6381C140.481 49.431 144.126 46.8796 148.086 44.9879C152.046 43.0962 155.346 41.5197 157.326 40.5739C159.966 39.3127 162.606 38.0516 166.882 36.8196C170.497 35.9028 174.773 34.6708 178.704 34.4138C182.635 34.1568 186.25 33.2401 190.181 32.9831C194.112 32.7261 196.723 33.0996 199.334 33.4732C212.388 35.3411 222.486 37.8104 230.95 40.2506C239.413 42.6908 246.527 47.3963 252.665 51.7573C258.459 57.0934 264.253 62.4295 268.698 70.0308C273.773 78.9516 279.164 88.5322 285.185 99.4322Z" fill="#F2F6FA"/>
<path fill-rule="evenodd" clip-rule="evenodd" d="M383.158 785.944L381.614 791.039C389.028 824.076 446.642 821.142 474.908 821.142C457.454 845.998 368.793 835.191 346.397 818.364C345.779 830.251 350.876 835.808 336.666 832.566C329.406 830.868 314.578 826.546 321.374 816.665C323.845 813.115 324.309 809.101 322.764 804.933C319.366 795.979 330.024 782.702 333.731 776.836C341.763 763.868 353.038 764.022 367.867 764.022C372.037 764.022 379.142 767.882 380.996 771.587C382.232 774.057 383.004 774.52 383.004 777.762C382.849 779.614 382.849 785.635 383.158 785.944Z" fill="#D7B46A"/>
<path fill-rule="evenodd" clip-rule="evenodd" d="M342.998 811.417C344.08 811.88 346.86 812.96 347.478 813.732C346.242 813.887 343.153 814.35 342.226 815.431C341.608 816.202 341.299 817.129 341.299 818.055C341.145 821.451 341.299 824.076 341.454 826.391C341.454 831.177 328.634 825.311 326.162 823.613C324.618 822.532 323.845 821.143 325.081 819.444C326.78 816.974 327.861 814.35 328.17 811.571C328.479 808.792 328.17 806.013 327.089 803.235C325.699 799.684 328.17 794.435 330.95 789.495C340.373 789.495 351.957 790.421 358.445 795.207C360.453 796.751 364.777 796.905 369.566 796.442C372.037 796.287 374.972 795.824 377.598 795.516C377.598 795.67 377.752 795.824 377.752 795.979C372.655 800.919 367.094 801.382 359.835 801.382C357.363 801.382 351.03 796.287 347.787 795.207C342.844 793.354 331.568 789.032 331.568 797.986C331.568 805.241 336.048 808.02 342.998 811.417Z" fill="#C3A461"/>
<path fill-rule="evenodd" clip-rule="evenodd" d="M419.92 829.324C426.871 829.324 444.325 826.391 451.894 824.23C456.064 824.384 460.852 824.847 464.714 824.847C453.593 829.942 431.041 831.949 412.969 830.559C409.726 830.405 406.637 830.096 403.393 829.788C408.953 829.633 414.36 829.324 419.92 829.324Z" fill="#C3A461"/>
<path d="M378.216 785.172L376.825 789.495C376.517 790.421 376.517 791.193 376.671 791.965C389.028 820.37 431.35 825.156 462.552 825.311C451.121 829.788 430.733 831.486 412.969 830.405C387.02 828.861 360.761 822.532 349.64 814.813L349.022 814.35C346.86 812.806 343.771 813.115 342.226 815.276C341.608 816.048 341.299 816.974 341.299 817.9C341.145 821.297 341.299 823.921 341.454 826.237C341.454 831.023 328.634 825.156 326.162 823.458C324.618 822.377 323.845 820.988 325.081 819.29C326.78 816.82 327.861 814.195 328.17 811.416C328.479 808.638 328.17 805.859 327.089 803.08C325.081 797.831 331.414 788.414 335.43 782.702C336.202 781.467 336.974 780.386 337.592 779.306C344.08 768.808 354.12 768.808 367.094 768.808H367.558C368.793 768.808 370.801 769.58 372.809 770.66C374.509 771.587 375.899 772.822 376.362 773.748C376.671 774.211 376.98 774.829 377.289 775.446C377.752 776.218 377.907 776.527 377.907 777.916C377.907 780.849 377.907 778.071 377.907 778.997C378.061 780.695 378.061 783.165 378.216 785.172ZM386.557 791.193L387.638 787.796C388.256 786.098 387.947 784.091 386.557 782.702C385.475 781.621 387.638 780.849 387.638 779.151C387.638 777.299 387.638 780.386 387.638 777.916C387.638 774.211 386.865 772.822 385.63 770.66C385.475 770.352 385.321 770.043 385.012 769.425C383.622 766.647 380.687 764.177 377.598 762.324C374.354 760.471 370.493 759.082 367.558 759.082H367.094C351.03 759.082 338.674 759.082 329.251 774.211C328.788 774.983 328.016 776.064 327.243 777.299C322.146 784.709 314.114 796.75 317.976 806.631C318.439 807.866 318.594 809.255 318.439 810.49C318.285 811.725 317.821 812.806 317.049 814.041C311.488 822.069 314.732 827.781 320.602 831.795C325.081 834.728 331.105 836.58 335.121 837.352C345.933 839.822 349.64 838.124 350.876 832.258C351.185 830.559 351.185 829.016 351.03 827.009C365.395 833.801 389.028 838.896 412.043 840.285C440.155 841.984 467.803 837.97 477.998 824.539L478.152 824.384C478.924 823.458 479.388 822.377 479.388 821.142C479.388 818.518 477.225 816.202 474.445 816.202C473.518 816.202 471.819 816.202 468.112 816.202C440.618 816.511 393.816 816.82 386.557 791.193Z" fill="black"/>
<path fill-rule="evenodd" clip-rule="evenodd" d="M230.551 790.267L227.616 794.744C225.762 828.553 279.978 834.728 307.009 842.292C283.531 861.435 211.088 836.272 193.943 814.041C184.676 822.223 185.602 829.479 172.782 822.532C166.295 818.981 153.165 810.645 162.433 803.08C165.677 800.301 167.376 796.596 166.912 792.119C165.986 782.856 182.359 772.822 187.147 765.566C194.098 754.759 210.162 761.861 221.437 765.103C225.453 766.184 231.168 771.741 232.095 776.064C232.559 778.688 233.331 779.46 232.404 782.702C232.095 784.092 230.242 789.804 230.551 790.267Z" fill="#D7B46A"/>
<path fill-rule="evenodd" clip-rule="evenodd" d="M225.299 795.361C214.023 792.891 204.601 790.575 195.642 790.73C188.383 790.884 179.887 786.253 174.327 786.098C175.408 784.092 175.871 784.091 178.034 781.93C182.822 783.628 187.301 785.481 192.553 786.407C202.747 788.26 215.877 789.649 225.917 792.582C225.453 793.2 225.299 794.435 225.299 795.361Z" fill="#C3A461"/>
<path fill-rule="evenodd" clip-rule="evenodd" d="M188.228 796.75C215.568 823.767 254.801 843.219 291.099 843.373L291.872 843.527C280.442 845.534 264.995 843.373 249.704 839.05C227.77 832.721 206.764 821.914 198.423 811.571L197.959 810.953C196.26 808.792 193.325 808.329 191.163 810.027C191.163 810.027 184.521 820.062 180.968 820.988C174.636 822.686 175.871 820.371 175.717 820.371C186.838 811.725 188.074 800.919 188.228 796.75Z" fill="#C3A461"/>
<path d="M226.071 788.26L225.917 790.884C225.299 791.656 224.372 794.898 224.372 795.824C225.144 824.539 262.679 834.265 291.254 843.373L292.026 843.527C280.596 845.534 265.15 843.373 249.858 839.05C227.925 832.721 206.918 821.914 198.577 811.571C198.423 811.417 198.268 811.262 198.114 810.953C196.415 808.792 193.48 808.329 191.317 810.027C191.163 810.182 191.008 810.336 190.854 810.49C188.228 812.806 186.375 815.122 184.83 816.974C182.513 819.753 181.277 821.297 175.562 818.055C172.628 816.357 168.303 813.732 165.831 810.953C164.596 809.564 164.287 808.02 165.986 806.631C168.303 804.778 170.002 802.463 171.083 799.838C172.164 797.368 172.628 794.435 172.319 791.502C172.01 787.797 177.879 782.393 183.131 777.453C186.529 774.211 189.927 771.124 191.781 768.036C195.797 761.861 206.609 765.257 215.568 768.036C217.267 768.499 218.966 769.117 220.665 769.58C221.901 769.889 223.6 771.124 225.144 772.822C226.535 774.211 227.616 775.755 227.77 776.681C227.925 777.453 228.079 778.071 228.234 778.534C228.388 779.306 228.543 779.769 228.234 781.004L227.925 782.085C226.998 783.937 226.38 786.098 226.071 788.26ZM232.404 796.287L234.412 793.354C235.493 791.81 235.802 789.803 234.876 788.105C234.103 786.716 236.42 786.562 236.883 785.018C237.192 783.937 236.884 785.018 237.192 783.937C238.274 780.232 237.81 778.843 237.347 776.527C237.192 776.064 237.192 775.601 237.038 775.138C236.42 772.05 234.412 768.808 231.786 766.183C229.16 763.405 225.762 761.243 222.982 760.317C221.592 759.854 219.893 759.391 218.194 758.928C205.991 755.068 191.317 750.591 183.285 762.942C181.895 764.948 179.115 767.727 176.026 770.506C169.075 776.99 161.506 784.246 162.279 792.582C162.433 793.972 162.279 795.207 161.815 796.442C161.352 797.522 160.58 798.603 159.498 799.375C151.93 805.55 153.474 812.034 158.108 817.437C161.506 821.606 166.913 824.847 170.62 826.854C183.44 833.956 186.375 830.405 192.09 823.458C192.708 822.841 193.171 822.069 193.943 821.297C204.756 831.949 225.762 842.447 247.078 848.622C271.174 855.569 296.351 856.804 309.635 846.769C309.789 846.615 309.944 846.615 310.098 846.461C310.87 845.843 311.643 844.917 311.952 843.836C312.724 841.212 311.179 838.587 308.554 837.815C304.074 836.58 298.977 835.345 293.416 834.11C267.158 827.781 232.404 819.444 232.404 796.287Z" fill="black"/>
<path fill-rule="evenodd" clip-rule="evenodd" d="M390.264 462.211C392.581 464.218 402.157 471.319 405.555 474.716C408.799 477.958 405.092 479.965 402.775 481.663C401.385 482.744 393.816 485.368 391.654 485.831C426.253 589.265 437.838 648.392 426.253 663.213C412.815 705.204 399.377 747.195 386.093 789.34C382.541 790.112 364.005 793.2 361.534 791.347C347.323 781.004 315.041 786.253 314.886 785.018C323.382 731.911 352.575 689.92 380.533 649.782C362.461 597.602 346.86 546.656 328.788 494.476C321.374 495.094 319.211 496.329 311.179 492.933C312.106 559.47 309.326 609.334 302.838 642.526C282.913 693.78 263.142 745.034 243.216 796.288C219.584 789.34 196.106 782.393 172.473 775.446C203.829 728.669 229.006 680.04 254.338 631.411C254.183 629.867 254.029 628.169 253.874 626.625C253.411 621.839 252.793 616.899 252.33 612.113C247.541 568.27 242.599 524.426 237.81 480.428C219.12 472.4 207.69 431.798 233.949 422.844C274.418 408.487 348.559 453.257 390.264 462.211Z" fill="#E6E9EE"/>
<path d="M253.874 458.815C268.548 467.923 281.523 469.467 297.587 459.432C283.222 462.52 269.011 462.829 253.874 458.815Z" fill="white"/>
<path d="M386.557 465.607C387.483 466.379 388.719 467.46 390.264 468.541C393.198 470.856 397.214 473.326 399.531 475.488C399.222 475.796 398.45 476.26 397.987 476.568C392.117 481.2 377.752 482.743 362.152 482.898C357.209 482.898 382.386 492.006 386.711 497.101C419.302 595.903 430.578 644.533 420.384 657.655L419.92 658.272L419.611 659.044L380.996 781.621C377.752 782.239 372.81 783.011 368.33 783.32C368.021 780.078 367.558 776.681 368.33 773.748C369.566 768.962 369.566 764.948 370.184 760.163C370.802 754.759 369.257 760.163 368.33 762.324C366.322 767.11 363.851 770.352 361.225 774.674C360.453 775.909 358.599 778.379 357.209 780.386C345.315 775.446 329.097 776.064 320.293 776.527C324.772 752.907 333.422 731.603 343.925 711.533C355.355 689.92 369.411 669.542 383.158 649.627L384.549 647.62L383.776 645.305C375.126 620.141 366.786 594.205 358.445 568.269C350.876 544.804 343.307 521.338 334.966 496.792C340.064 495.557 341.299 495.866 346.397 492.778L332.958 489.999L337.901 476.723C336.048 478.575 331.877 484.442 328.325 487.529H328.016C326.162 487.684 325.39 487.838 324.618 487.838C320.602 488.301 318.439 488.61 313.033 486.294L306.237 483.515L306.391 490.926C307.318 556.382 305.928 605.784 299.595 638.512L241.517 786.407C234.721 784.4 228.234 779.46 221.437 777.453L197.341 774.983L182.513 768.808C196.569 747.195 209.389 725.273 221.592 703.042C234.875 678.959 247.232 654.722 259.589 630.639L260.207 629.404L260.053 628.014L259.589 623.228L258.045 608.717L243.834 477.958L243.525 475.179L240.899 474.098C234.875 471.474 229.778 464.372 226.998 456.19C225.762 452.485 224.99 448.626 224.99 444.921C224.99 441.37 225.453 437.973 226.689 435.04C228.388 431.026 231.786 427.63 236.883 425.778C261.752 417.132 301.912 433.342 337.747 447.699C355.51 455.573 372.655 462.52 386.557 465.607ZM396.133 460.976C394.28 459.587 392.735 458.352 391.963 457.58L391.036 456.808L389.8 456.499C376.362 453.566 359.217 446.773 340.99 439.363C303.611 424.388 261.597 407.406 233.485 417.287C207.536 427.476 214.641 469.93 234.258 482.28L252.484 628.323C240.282 652.097 225.762 675.717 212.942 699.029C199.813 722.803 186.066 746.423 170.62 769.58L166.912 774.983L173.245 776.836C180.66 778.534 186.838 781.93 194.252 783.165C210.625 786.098 228.079 787.333 242.753 797.368L246.923 798.603L248.468 794.435L307.163 641.6L307.318 641.136V640.673C313.496 608.562 316.277 560.859 315.659 497.873C318.902 498.645 321.374 498.336 324.772 497.873C332.958 521.956 340.99 546.656 348.868 571.357C356.746 595.903 364.778 620.45 373.582 646.231C360.298 665.683 346.706 685.443 335.275 707.056C323.382 729.441 313.96 753.679 309.635 780.541L309.48 781.313V781.93C310.098 786.716 313.96 786.561 319.984 786.253C329.097 785.79 348.25 785.018 357.209 791.656C359.217 793.2 363.387 793.354 368.176 792.891C374.663 792.273 383.004 790.884 385.166 790.421L387.947 789.803L388.719 787.179L428.416 662.904C439.691 646.077 429.033 587.567 396.133 487.684C396.905 487.375 397.832 487.066 398.605 486.757C400.767 485.985 402.929 484.905 403.856 484.133L404.629 483.67C405.555 483.052 406.328 482.435 407.254 481.508C410.344 478.421 411.734 474.716 407.1 470.084C404.783 467.769 399.995 463.909 396.133 460.976Z" fill="white"/>
<path fill-rule="evenodd" clip-rule="evenodd" d="M258.045 441.679C232.25 443.531 239.509 475.951 266.077 478.112C268.548 478.267 255.11 509.76 260.671 533.225C266.695 558.852 258.045 616.281 270.865 633.417C253.72 676.18 207.381 761.089 192.09 773.748L182.204 769.734C196.569 747.967 207.69 728.824 220.047 706.593C233.485 682.356 246.151 657.964 258.663 633.726L259.28 632.491L259.126 631.102L258.663 626.316L257.118 611.804L242.599 480.119L242.29 477.34C214.332 481.045 211.243 432.879 230.705 424.388C237.347 428.556 248.005 437.51 258.045 441.679Z" fill="#B3B8C1"/>
<path fill-rule="evenodd" clip-rule="evenodd" d="M393.662 471.011C362.615 473.944 328.942 467.151 292.644 452.948C322.764 460.513 356.591 467.46 388.101 466.534C389.028 467.151 390.727 468.541 391.808 469.467C392.272 470.084 392.889 470.548 393.662 471.011Z" fill="#74869F"/>
<path d="M387.947 466.688C388.873 467.46 390.264 468.541 391.654 469.621C394.589 471.937 398.296 474.87 400.613 476.877C400.458 477.031 400.149 477.186 399.686 477.649C393.353 482.435 387.483 485.214 370.647 485.368L388.256 490.926C421.465 590.5 432.895 646.848 422.392 660.125L421.928 660.743L421.619 661.514L382.232 784.863C378.988 785.481 373.891 786.253 369.411 786.562C369.102 783.32 368.639 779.923 369.411 776.99C370.647 772.204 370.647 768.19 371.265 763.405C371.883 758.001 370.338 763.405 369.411 765.72C367.249 770.66 364.932 773.748 362.152 778.225C361.379 779.46 359.371 781.93 358.136 784.091C346.088 779.151 329.56 779.769 320.602 780.232C325.081 756.458 333.885 734.999 344.698 714.775C356.282 693.008 370.647 672.475 384.549 652.561L385.939 650.554L385.166 648.238C376.362 622.92 367.867 596.675 359.371 570.585C351.648 546.965 343.925 523.345 335.43 498.644C340.682 497.409 341.763 497.718 347.169 494.631L333.422 491.852L338.365 478.575C336.357 480.582 332.341 486.294 328.634 489.536H328.325C326.471 489.691 325.544 489.845 324.772 489.845C320.756 490.308 318.594 490.617 313.033 488.301L306.237 485.368L306.391 492.778C307.318 558.698 305.928 608.408 299.44 641.291L240.282 790.112C233.485 788.105 226.689 783.165 219.893 781.158L195.333 778.688L180.196 772.513C194.561 750.746 207.536 728.669 219.893 706.284C233.331 682.047 245.997 657.655 258.508 633.417L259.126 632.182L258.971 630.793L258.508 626.007L256.963 611.496L242.444 479.81L242.135 477.031C231.014 475.951 225.608 467.306 222.519 458.352C218.194 446.773 222.21 428.402 234.412 425.623C259.589 416.978 301.294 434.886 337.747 449.398C356.437 456.499 373.891 463.446 387.947 466.688ZM397.678 461.902C395.824 460.513 394.28 459.278 393.353 458.506L392.426 457.734L391.19 457.425C377.598 454.492 360.144 447.545 341.608 440.135C303.611 425.006 260.979 408.024 232.404 417.904C206.146 428.093 213.251 471.011 233.176 483.361L251.712 630.484C239.355 654.413 224.527 678.187 211.552 701.653C198.268 725.582 184.212 749.356 168.457 772.667L164.75 778.225L171.083 780.078C178.652 781.776 184.984 785.172 192.553 786.562C209.235 789.495 226.998 790.73 241.826 800.919L246.151 802.154L247.696 797.986L307.318 644.224L307.472 643.761L307.627 643.298C313.96 610.878 316.74 563.021 316.122 499.571C319.52 500.343 321.992 500.034 325.39 499.571C333.731 523.808 341.763 548.663 349.949 573.518C357.981 598.219 366.168 622.92 374.972 648.855C361.379 668.307 347.632 688.376 336.048 710.144C324 732.683 314.423 756.921 309.944 784.091L309.789 784.863L309.944 785.481C310.562 790.267 314.423 790.112 320.602 789.804C329.869 789.34 349.331 788.414 358.445 795.207C360.453 796.751 364.777 796.905 369.566 796.442C376.208 795.824 384.549 794.435 386.865 793.972L389.646 793.354L390.573 790.575L430.578 665.22C441.081 648.547 428.879 590.037 397.678 488.764C398.45 488.455 399.377 488.147 400.149 487.838C402.466 486.912 404.474 485.985 405.555 485.213L406.328 484.596C407.254 483.978 408.181 483.361 408.953 482.435C412.043 479.347 413.587 475.642 408.799 470.856C406.637 468.849 401.539 464.99 397.678 461.902Z" fill="#232834"/>
<path fill-rule="evenodd" clip-rule="evenodd" d="M232.095 423.308C261.906 446.619 347.632 464.835 390.109 462.057C409.108 461.594 412.352 450.941 399.84 430.255C414.669 351.984 417.603 311.537 432.432 317.403C447.569 324.196 519.084 374.524 528.352 349.977C528.352 315.86 514.605 248.087 505.646 214.278C496.688 213.661 484.485 217.057 475.526 216.285C479.697 241.758 484.331 280.044 488.501 304.281C474.908 296.254 448.804 281.124 435.366 273.097C372.192 235.583 326.934 218.755 300.058 222.615C278.742 246.698 257.581 270.627 236.266 294.71C228.234 310.456 244.143 322.035 260.516 331.606L232.095 423.308Z" fill="#BFE0BF"/>
<path fill-rule="evenodd" clip-rule="evenodd" d="M506.882 227.555L482.477 246.698C481.55 240.214 478.307 233.73 477.38 227.709C479.851 226.937 487.111 224.93 489.891 223.85C493.135 222.615 496.842 220.299 500.704 218.91C501.167 218.91 502.248 217.829 502.712 217.829C503.638 221.225 505.955 223.695 506.882 227.555Z" fill="#A2C2A2"/>
<path fill-rule="evenodd" clip-rule="evenodd" d="M312.724 434.886C323.845 438.591 336.511 441.833 350.876 444.457C366.631 447.391 384.549 449.552 404.32 451.096C404.32 452.485 404.165 453.566 403.702 454.492C403.238 455.264 402.621 455.882 401.694 456.499C399.686 457.734 396.597 458.352 392.426 458.506C392.272 458.506 391.963 458.506 391.808 458.506H391.654C386.711 458.815 380.996 458.815 374.972 458.66C369.257 458.506 363.233 458.043 356.746 457.271C340.064 455.418 321.683 452.176 304.074 447.854C280.751 442.142 256.809 438.128 241.981 429.637C235.957 426.241 230.551 424.234 232.404 417.75L263.914 335.775C265.304 337.01 267.776 336.855 269.011 338.09C262.987 355.998 260.053 375.45 260.207 396.137C264.069 404.936 271.019 412.81 281.059 419.602C288.01 424.388 296.351 428.556 306.237 432.416C308.245 433.342 310.407 434.114 312.724 434.886Z" fill="#A2C2A2"/>
<path fill-rule="evenodd" clip-rule="evenodd" d="M435.212 315.088C427.025 311.846 421.465 316.168 417.14 327.438C414.36 334.385 412.043 344.574 409.417 357.696C409.262 345.809 409.417 324.196 413.896 314.162C417.14 307.06 418.685 304.127 425.635 306.906C431.505 309.221 436.139 312.309 441.545 315.86C444.48 317.867 445.715 320.645 448.187 322.344C442.626 319.102 438.301 316.632 435.212 315.242V315.088Z" fill="#A2C2A2"/>
<path d="M303.302 448.471C334.04 456.19 367.249 460.358 388.873 458.969C399.068 458.66 405.092 455.418 406.945 449.243C408.645 443.531 406.482 435.503 400.458 425.16C403.393 409.568 405.71 395.828 407.872 383.632C412.661 355.844 416.059 336.083 420.229 325.277C422.701 318.638 425.481 315.86 428.725 317.249C431.659 318.638 437.22 321.88 444.016 326.049C457.609 334.231 476.299 345.346 492.054 351.521C507.345 357.388 521.092 359.086 524.954 348.588C525.726 340.252 522.791 302.583 518.003 289.461C513.369 261.518 507.036 232.341 502.248 213.815L501.785 212.271L500.24 212.117C495.761 211.808 490.509 212.426 485.257 213.198L472.592 214.124L484.176 297.952C477.843 294.092 466.722 289.615 459.153 285.138C449.422 279.272 439.537 273.56 433.667 269.855C403.084 251.484 376.825 238.053 355.046 229.716C332.958 221.38 315.195 218.138 301.912 220.145L301.139 220.299L300.522 220.916L239.046 291.313L238.891 291.622L238.737 291.931C234.412 300.576 236.575 307.986 241.826 314.625C246.615 320.491 253.874 325.431 261.288 330.063L234.412 418.367L230.242 423.462C231.632 427.63 290.327 450.633 303.302 448.471ZM303.92 447.854C277.198 441.215 245.842 430.872 232.25 420.529L264.687 327.592C257.118 323.115 250.785 318.33 245.07 311.383C240.899 306.134 238.737 299.804 241.981 293.166L302.684 223.541C315.195 221.997 332.341 225.702 353.347 233.73C374.972 241.912 400.921 255.189 431.35 273.405C438.456 277.728 447.723 283.131 456.991 288.689C466.876 294.555 476.608 300.267 482.632 303.972L486.802 306.443L486.03 301.502C483.867 288.843 481.55 272.325 479.388 255.806C477.534 242.53 475.681 229.407 473.982 218.292C477.843 218.292 482.014 217.675 486.184 217.211C490.509 216.594 497.151 213.969 500.858 213.969C507.654 249.631 522.791 311.383 520.011 346.272C519.393 353.837 506.728 351.676 494.062 346.89C478.616 341.023 460.08 329.908 446.642 321.88C439.691 317.712 433.976 314.316 430.733 312.772H430.578C424.245 310.302 419.92 314.007 416.213 323.424C411.888 334.54 408.49 354.454 403.547 382.551C401.076 396.909 397.369 416.206 394.743 430.563C397.987 435.967 403.547 443.222 401.385 450.169C397.214 463.6 314.732 450.633 303.92 447.854Z" fill="white"/>
<path fill-rule="evenodd" clip-rule="evenodd" d="M321.528 268.928C326.317 268.928 326.008 269.392 327.707 265.532C328.634 263.525 329.406 258.739 330.487 257.967C331.723 257.041 331.723 261.518 332.032 262.136C332.186 260.901 333.267 255.034 333.576 253.182C333.422 255.497 333.422 257.659 333.422 259.974C333.422 263.988 334.503 267.693 336.357 271.09C331.877 273.56 328.479 277.728 329.097 283.131C329.406 286.219 329.56 289.461 329.406 292.703C327.707 289.306 325.699 286.528 323.382 284.521C321.683 283.131 319.829 282.051 317.976 281.587C315.968 280.97 313.805 281.124 311.797 281.742C309.944 282.359 308.09 283.749 306.546 285.601C302.838 290.078 302.375 295.327 303.302 301.039C302.838 300.576 302.375 300.113 301.757 299.804C300.522 298.878 298.822 298.415 297.432 297.952C297.278 297.797 294.806 298.106 294.498 297.797C292.026 295.636 290.018 293.012 288.01 290.696L290.173 290.078C290.018 289.77 298.514 291.622 297.123 286.991C296.197 283.903 293.107 278.654 299.131 278.654C303.92 278.654 305.928 280.198 305.31 275.875C304.538 269.392 302.53 268.62 309.48 268.928C313.651 269.083 317.667 268.928 321.528 268.928Z" fill="#A2C2A2"/>
<path fill-rule="evenodd" clip-rule="evenodd" d="M256.963 276.956C239.2 298.878 250.785 318.175 290.018 333.459C290.327 334.076 290.791 334.694 291.099 335.311C293.416 339.171 295.27 344.265 296.815 349.36C293.262 348.279 290.018 346.89 286.62 345.037C280.442 341.641 272.873 339.171 264.687 331.298C256.655 326.666 248.005 320.337 241.981 312.309C237.965 307.832 236.42 302.12 239.509 296.562L256.963 276.956Z" fill="#A2C2A2"/>
<path d="M301.139 455.264C333.267 463.137 365.859 468.541 388.565 467.151C395.052 464.99 406.791 466.997 410.498 454.955C412.352 448.78 410.189 440.289 404.011 429.637C406.945 413.582 409.417 399.842 411.579 387.646C416.522 359.24 420.075 339.171 424.245 328.364C426.562 322.498 428.57 320.028 431.041 320.954C433.976 322.344 439.691 325.74 446.796 329.754C460.852 338.09 480.469 349.514 496.996 355.844C513.678 362.173 527.58 363.1 532.059 351.212L532.368 350.595V349.977C532.368 334.848 529.742 313.235 526.035 290.85C521.247 262.29 512.134 232.186 507.036 213.043L506.11 210.419C501.321 210.11 495.761 210.727 490.2 211.499C485.103 212.117 480.006 212.889 475.99 212.426L471.047 212.117L471.819 217.057C473.673 228.79 475.835 243.456 477.843 258.122C479.697 271.707 481.705 285.293 483.404 296.871C477.225 293.32 470.584 289.306 463.942 285.447C453.593 279.426 443.244 273.405 437.374 269.855C405.555 251.02 378.216 237.281 355.51 228.79C332.341 220.145 313.651 216.903 299.595 218.91L298.205 219.064L297.278 220.145L233.485 292.24C227.152 299.341 231.168 311.691 236.42 318.021C241.208 323.887 248.468 328.982 256.037 333.459L228.543 422.536L228.079 424.079C240.436 439.363 283.222 450.169 301.139 455.264ZM302.993 447.699C275.962 441.061 248.159 432.57 233.794 422.536L264.532 331.452C258.508 326.666 248.777 320.645 242.29 312.772C238.274 307.986 236.729 302.737 239.509 296.717L301.912 226.165C314.578 224.776 331.568 227.864 352.729 235.891C374.972 244.228 401.848 257.659 433.358 276.339C441.081 280.97 450.504 286.528 459.926 291.931C470.275 297.952 480.778 304.127 486.493 307.523L493.753 311.846L492.363 303.509C490.2 290.541 487.729 273.56 485.412 256.732C483.558 243.919 481.859 231.106 480.16 219.99C483.713 219.836 487.42 219.373 491.127 218.91C495.143 218.446 499.159 217.829 502.712 217.829C507.654 236.818 513.678 264.915 518.312 291.931C521.865 313.544 524.491 334.385 524.645 349.051C521.865 354.763 511.825 353.219 499.777 348.588C483.867 342.567 464.714 331.298 450.812 323.115C443.553 318.793 437.683 315.397 434.131 313.853H433.976C426.408 310.92 421.31 314.933 417.14 325.586C412.661 337.164 409.108 357.542 404.011 386.411C401.694 399.379 399.068 414.199 396.133 429.637L395.824 431.026L396.597 432.261C402.312 441.679 404.474 448.471 403.084 452.64C402.003 456.19 397.678 458.043 390.109 458.197H389.955C368.021 459.741 334.349 455.418 302.993 447.699Z" fill="#232834"/>
<path fill-rule="evenodd" clip-rule="evenodd" d="M357.209 139.404C350.104 138.169 342.226 150.52 340.836 158.239C339.446 165.957 342.998 169.199 343.616 172.441C344.852 179.08 345.315 180.624 350.104 181.395C357.209 182.63 364.469 174.14 366.477 162.561C368.33 150.983 364.16 140.639 357.209 139.404Z" fill="#FAC39D"/>
<path fill-rule="evenodd" clip-rule="evenodd" d="M362.461 148.204C362.306 146.66 358.908 140.485 354.737 142.492C353.811 142.955 351.03 145.116 350.413 146.351C353.347 147.741 359.062 154.225 359.989 158.702C363.233 154.997 362.306 150.365 362.461 148.204Z" fill="#FDD5A5"/>
<path d="M357.827 135.854C352.73 134.927 347.787 138.478 344.08 143.264C340.682 147.586 338.056 153.298 337.283 157.775V158.084C336.357 164.414 337.901 167.964 339.291 171.052C339.755 171.978 340.064 172.75 340.218 173.368C340.836 177.073 341.454 179.543 342.69 181.395C344.234 183.711 346.242 184.637 349.64 185.255C354.583 186.027 359.217 183.711 363.078 179.388C366.477 175.529 369.102 169.817 370.184 163.333C371.265 156.849 370.647 150.674 368.793 145.888C366.322 140.485 362.615 136.625 357.827 135.854ZM349.64 147.741C351.957 144.808 354.429 142.646 356.437 142.955C358.599 143.264 360.453 145.425 361.688 148.358C363.078 151.909 363.542 156.695 362.769 161.944C361.843 167.038 359.835 171.515 357.363 174.448C355.201 176.918 352.884 178.308 350.721 177.845C349.486 177.69 348.868 177.382 348.713 177.073C348.25 176.301 347.941 174.603 347.323 171.824C347.014 170.435 346.551 169.199 345.933 167.81C345.006 165.649 343.771 163.024 344.543 158.702C345.006 155.614 347.014 151.292 349.64 147.741Z" fill="#232834"/>
<path fill-rule="evenodd" clip-rule="evenodd" d="M369.102 94.0169C369.102 118.872 367.094 143.418 360.298 167.193C351.494 197.76 337.129 227.555 337.129 259.666C337.129 294.71 432.123 297.489 435.366 272.942C438.456 249.168 461.316 226.32 461.316 203.009C461.316 199.921 461.779 196.833 462.706 193.746C464.096 196.061 465.641 198.532 465.641 200.538C465.641 241.912 483.558 216.903 510.435 214.587C537.002 212.271 560.326 180.932 544.725 156.077C533.758 138.478 510.28 134.464 496.07 150.056C487.111 159.782 487.265 164.414 476.762 166.421C492.517 140.022 512.443 115.012 492.054 92.1643C475.835 73.7932 367.249 50.0188 369.102 94.0169Z" fill="#FDD5A5"/>
<path fill-rule="evenodd" clip-rule="evenodd" d="M418.376 226.937C408.645 230.488 391.963 225.857 387.483 221.225C393.507 223.078 408.799 227.246 413.896 225.085L409.417 181.087L418.376 226.937Z" fill="#FAC39D"/>
<path fill-rule="evenodd" clip-rule="evenodd" d="M538.547 170.126C537.465 157.312 524.491 144.962 497.46 153.916C504.72 143.881 514.142 142.338 526.499 144.19C530.823 144.808 534.994 147.432 538.547 151.446C540.091 153.298 541.481 155.46 542.717 157.93C544.725 162.098 545.806 166.421 546.115 170.743C546.579 177.382 545.188 184.02 542.563 190.041C539.937 196.061 535.921 201.31 531.287 205.17C527.425 208.412 522.946 210.419 518.467 210.882C512.906 211.499 507.809 213.661 503.484 215.822C502.557 216.285 501.785 216.594 501.012 217.057C499.931 217.675 498.85 218.138 497.923 218.601C498.078 218.138 498.232 217.52 498.541 217.057C509.508 199.767 541.172 201.465 538.547 170.126Z" fill="#FAC39D"/>
<path d="M365.395 94.0169C365.395 106.367 364.932 118.563 363.542 130.605C363.078 151.6 357.981 171.052 348.559 191.276C340.99 213.661 333.422 235.891 333.422 259.666C333.422 273.251 345.006 282.514 360.762 287.608C368.639 290.233 377.598 291.776 386.402 292.394C395.206 293.012 404.165 292.703 411.888 291.313C426.562 288.843 437.683 282.822 438.919 273.251C440.309 262.753 445.87 252.101 451.43 241.603C456.064 232.804 460.698 224.158 463.015 215.204C465.023 224.467 469.193 227.555 475.372 227.555C479.542 227.555 484.331 225.702 489.891 223.695C495.915 221.38 503.329 215.668 510.744 217.983C517.849 217.366 524.645 214.896 530.669 211.191C537.62 206.868 543.644 200.693 547.66 193.591C551.83 186.336 553.993 178.308 553.22 170.126C552.757 164.722 551.058 159.165 547.814 154.07C545.961 150.983 543.644 148.358 541.172 146.043C535.457 140.948 528.661 137.706 521.556 136.934C514.451 136.008 507.963 138.478 501.476 142.492C499.004 144.036 495.606 145.116 493.289 147.586C492.208 148.821 491.281 149.902 490.355 150.828C503.02 129.678 511.979 109.455 494.68 89.6943C487.111 81.049 461.161 71.4775 434.903 67.3093C421.465 65.3024 408.027 64.5305 396.442 66.0743C384.394 67.618 374.509 71.7863 369.257 79.3509C366.631 83.5191 365.241 88.3048 365.395 94.0169ZM370.956 131.531C372.346 119.181 372.809 106.676 372.809 94.1713V94.0169C372.655 89.8486 373.582 86.4523 375.435 83.8279C379.451 78.1158 387.483 74.8739 397.523 73.6388C408.336 72.2494 421.156 72.8669 433.822 74.8739C458.69 78.7333 482.632 87.3786 489.273 94.7888C505.492 113.006 492.517 133.847 479.079 155.769C477.225 158.856 475.372 161.789 473.518 164.722L469.348 171.824L477.38 170.28C483.404 165.958 493.753 158.239 498.696 152.681C500.395 150.828 502.403 149.285 504.411 147.895C509.508 144.808 515.068 143.573 520.629 144.344C526.19 144.962 531.75 147.586 536.23 151.6C538.238 153.453 540.091 155.614 541.636 158.084C544.262 162.252 545.652 166.575 545.961 170.898C546.579 177.536 544.725 184.174 541.327 190.195C537.929 196.216 532.831 201.465 526.807 205.324C521.71 208.566 515.995 210.573 510.126 211.036C500.858 210.419 492.826 215.513 488.038 218.446C469.811 229.407 467.958 210.11 469.348 200.693C469.348 199.149 468.884 197.451 468.112 195.907C467.494 194.518 466.722 193.283 465.95 192.048L461.47 184.946L459.308 192.974C458.844 194.826 458.381 196.525 458.227 198.068C457.918 199.767 457.763 201.465 457.763 203.163C460.698 217.057 452.203 227.092 445.252 238.516C439.382 249.631 433.513 260.901 431.968 272.633C431.196 278.5 422.546 282.514 410.961 284.366C403.702 285.601 395.052 287.299 386.711 286.682C378.37 286.064 370.647 283.131 363.233 280.816C350.413 276.647 340.99 269.546 340.99 259.82C340.99 237.126 348.405 215.513 355.819 193.746C358.599 185.409 361.534 177.073 364.005 168.428C367.249 156.232 369.566 143.881 370.956 131.531Z" fill="#232834"/>
<path d="M414.36 152.835L414.669 151.755C415.75 148.513 417.603 144.19 419.92 140.485C421.619 137.552 423.627 135.082 425.481 133.847C429.033 131.531 431.505 130.605 433.358 130.759C434.285 130.759 435.057 131.377 435.675 132.303C436.602 133.847 437.22 136.008 437.529 138.632C438.456 146.351 436.756 155.769 435.057 159.628C434.594 160.709 433.204 161.481 431.35 161.944C429.033 162.561 426.099 162.716 423.164 162.561C420.229 162.252 417.449 161.635 415.286 160.554C413.896 159.937 412.815 159.165 412.661 158.702L411.734 155.614C412.815 154.997 413.742 154.07 414.36 152.835ZM404.011 152.835C404.32 153.298 404.629 153.607 404.937 153.916L403.393 158.393C403.238 159.01 402.775 159.474 402.312 159.782C401.539 160.246 400.458 160.554 399.377 160.554C397.987 160.554 396.442 160.4 395.206 159.937C393.507 159.319 391.963 158.393 391.345 157.312C389.491 154.379 388.101 150.52 387.792 146.506C387.483 142.801 387.792 139.096 389.182 136.008C389.8 134.619 390.264 134.001 390.727 133.847C391.036 133.692 391.499 133.847 392.117 134.155C393.353 134.773 394.743 135.854 395.979 137.243C399.84 141.257 402.929 146.969 402.929 149.902V151.446L404.011 152.835ZM409.417 139.404C407.718 136.317 405.555 133.229 403.238 130.605C401.076 128.443 398.759 126.591 396.442 125.356C393.507 123.966 390.264 123.503 387.329 124.738C384.549 125.819 382.077 128.135 380.378 132.149C378.216 136.78 377.598 142.183 378.061 147.432C378.525 152.99 380.378 158.393 383.004 162.561C384.857 165.649 388.256 167.964 392.117 169.2C394.589 169.971 397.214 170.435 399.84 170.28C402.621 170.126 405.401 169.354 407.563 167.964C407.872 167.81 408.027 167.656 408.181 167.501C409.108 168.119 410.035 168.736 411.116 169.2C414.205 170.589 418.221 171.67 422.237 171.978C426.253 172.287 430.424 172.133 433.976 171.052C438.456 169.817 442.008 167.347 443.862 163.487C446.179 158.547 448.341 146.815 447.26 137.397C446.796 133.384 445.715 129.678 443.862 126.9C441.545 123.349 438.301 121.188 433.822 121.033C430.115 120.879 425.635 122.268 420.229 125.819C416.985 127.98 414.051 131.531 411.734 135.545C410.807 136.78 410.035 138.015 409.417 139.404Z" fill="#232834"/>
<path fill-rule="evenodd" clip-rule="evenodd" d="M408.953 151.755L409.262 150.674C408.799 151.909 407.1 151.909 407.254 150.365C407.872 140.485 391.345 120.261 384.703 135.082C381.15 142.955 382.695 153.453 387.02 160.091C390.881 166.112 404.629 168.119 407.254 160.091C409.417 167.656 433.358 170.743 437.683 161.635C441.854 152.527 445.715 115.167 421.619 130.913C416.059 134.619 410.807 145.425 408.953 151.755Z" fill="white"/>
<path fill-rule="evenodd" clip-rule="evenodd" d="M434.594 141.72C432.586 141.72 430.887 143.881 430.887 146.351C430.887 148.976 432.586 150.983 434.594 150.983C436.602 150.983 438.301 148.821 438.301 146.351C438.147 143.881 436.602 141.72 434.594 141.72Z" fill="#232834"/>
<path fill-rule="evenodd" clip-rule="evenodd" d="M400.458 143.573C398.45 143.573 396.751 145.734 396.751 148.204C396.751 150.828 398.45 152.835 400.458 152.835C402.466 152.835 404.165 150.674 404.165 148.204C404.011 145.734 402.466 143.573 400.458 143.573Z" fill="#232834"/>
<path fill-rule="evenodd" clip-rule="evenodd" d="M354.583 171.052C355.973 171.67 354.274 173.059 353.038 173.059C346.397 173.059 349.949 170.434 348.713 166.112C348.405 164.722 347.941 163.333 347.632 161.789C347.478 161.326 350.876 169.663 354.583 171.052Z" fill="#232834"/>
<path fill-rule="evenodd" clip-rule="evenodd" d="M407.1 246.08C410.035 246.08 411.27 251.792 411.27 254.726C411.27 261.827 401.694 257.813 398.759 256.115C393.816 253.027 386.865 252.564 381.459 254.417C382.077 254.262 382.232 253.027 382.541 252.41C383.931 250.403 387.329 249.785 389.8 249.785C395.515 249.631 401.076 246.08 407.1 246.08Z" fill="#232834"/>
<path fill-rule="evenodd" clip-rule="evenodd" d="M409.108 177.536L413.896 225.085C406.019 228.481 396.751 225.085 387.483 221.225C395.515 221.843 403.084 221.843 408.49 218.446C408.799 204.861 408.953 191.121 409.108 177.536Z" fill="#232834"/>
<path fill-rule="evenodd" clip-rule="evenodd" d="M353.193 138.478C365.241 140.485 372.809 114.086 379.451 110.072C383.467 107.757 382.386 122.423 389.028 120.724C393.971 119.489 416.368 99.2658 422.546 98.3395C427.952 97.4132 416.831 115.63 422.701 114.858C439.691 112.542 457.3 110.381 469.811 106.83C455.446 132.303 468.73 152.681 473.827 177.382C480.469 168.736 489.891 159.01 499.004 148.976C500.858 146.969 500.24 142.801 502.094 140.794C502.403 125.665 506.882 137.552 508.272 138.478C533.14 108.992 549.204 78.2702 489.119 63.2955C495.761 57.8922 501.012 54.1871 507.809 50.1732C518.467 43.6893 487.574 52.1802 486.184 52.0258L484.331 34.7353L472.9 53.8783C471.974 55.4221 471.819 35.6616 470.275 29.4864C466.568 29.1777 464.714 36.7423 462.243 46.3138C453.284 14.666 412.506 20.9956 395.052 26.2445C399.686 26.2445 406.173 28.4058 410.035 30.8758C414.514 33.6547 402.003 33.5003 400.304 33.6547C391.808 34.1178 385.63 37.051 379.451 41.2192C373.736 45.2331 369.411 47.3944 379.451 47.3944C395.979 47.3944 376.98 49.4013 373.273 52.1802C351.648 68.8531 355.973 95.0976 346.088 117.019C343.616 122.577 352.421 114.549 354.737 112.851C365.55 105.132 355.973 135.082 353.193 138.478Z" fill="#FFC05A"/>
<path fill-rule="evenodd" clip-rule="evenodd" d="M424.091 60.3622C413.124 58.0466 400.458 59.1272 390.109 59.1272C389.955 59.1272 414.823 60.671 413.587 65.4568C413.433 65.9199 413.278 66.2286 412.815 66.6918C410.653 68.6987 376.053 71.7863 386.402 72.2494C391.19 72.4038 399.84 72.867 399.84 79.5053C397.06 79.9684 376.208 75.4914 379.142 79.814C380.533 82.7472 383.467 86.7611 381.15 86.7611C378.061 86.7611 375.435 86.9154 373.582 87.3786C370.029 88.3049 369.257 90.1574 372.809 93.5537C373.427 94.1713 374.2 94.9432 375.281 95.7151C379.297 98.957 374.663 98.3395 372.809 98.957C372.346 99.1114 372.037 99.4202 372.192 99.8833C372.192 100.038 372.501 100.501 372.809 101.273C373.736 103.28 376.208 107.602 376.825 108.837C375.435 110.072 374.509 110.999 373.273 113.006C371.883 116.865 367.249 123.966 364.932 127.826C366.94 123.04 368.176 115.939 368.176 110.381C368.176 107.293 366.94 105.75 365.395 104.669C362.924 102.817 359.835 101.581 359.835 95.5607C359.835 90.3118 359.371 85.3717 361.07 80.2771C361.534 78.8877 362.924 72.4038 363.696 69.9337C366.322 64.5305 370.029 59.436 375.59 55.2677C376.517 54.6502 380.069 53.7239 382.849 52.952C386.711 51.717 389.8 50.9451 389.8 47.8575C389.8 45.5418 387.638 44.1524 382.077 43.8437C384.703 41.9911 387.329 40.4473 390.264 39.3667C393.353 38.1316 396.597 37.3598 400.458 37.2054C400.767 37.2054 401.076 37.2054 401.385 37.2054C404.629 37.2054 412.197 37.051 413.896 34.1178C415.286 31.8021 414.977 29.6408 411.888 27.7882C411.27 27.3251 410.498 27.0164 409.88 26.5532C416.831 25.4726 424.863 25.0094 432.277 26.0901C443.862 27.7882 454.52 33.3459 458.536 46.4681L458.69 47.0856C458.072 47.24 457.3 47.3944 456.528 47.5488C446.951 49.0926 422.083 46.4681 441.39 51.0995C448.032 52.6433 452.975 53.5696 459.926 55.1134C460.698 55.2677 460.698 57.5834 460.389 60.3622C459.308 62.3692 456.682 63.2954 451.43 61.2885C435.83 55.2677 457.763 75.0283 433.976 69.1618C437.683 68.0812 443.398 65.148 437.22 65.148C431.35 65.148 427.18 64.6849 421.31 63.7586C422.237 62.5235 423.627 61.2885 424.091 60.3622Z" fill="#FFEEA4"/>
<path fill-rule="evenodd" clip-rule="evenodd" d="M488.192 66.8462C523.255 61.4429 539.01 99.2658 523.564 115.012C523.409 112.079 522.946 107.139 521.556 101.427C518.93 102.045 517.849 103.897 514.296 104.515C509.199 105.287 510.743 104.823 513.369 101.582C518.467 95.5607 515.532 86.1436 510.898 80.8947C510.744 85.5261 507.654 89.2312 503.638 91.3925C501.167 92.7819 503.793 87.6874 503.793 86.1436C503.793 74.4108 498.387 70.0882 488.192 66.8462Z" fill="#E6AE53"/>
<path fill-rule="evenodd" clip-rule="evenodd" d="M474.291 152.527C474.908 153.916 480.469 161.789 482.477 161.481C481.087 163.024 479.542 164.723 478.152 166.266C477.225 167.347 476.299 168.428 475.372 169.508C463.478 156.54 457.454 135.854 471.047 112.234C469.039 126.128 468.267 139.559 474.291 152.527Z" fill="#E6AE53"/>
<path d="M352.884 142.029C362.924 143.573 369.411 132.303 374.972 122.731C376.671 119.798 378.216 117.019 379.606 115.321C381.15 120.261 383.158 126.128 390.109 124.275C393.044 123.503 399.068 118.872 405.71 113.932C410.653 110.072 416.059 106.058 419.611 103.743L419.148 105.132C418.067 108.374 417.14 111.616 417.449 114.086C417.912 117.174 419.611 119.026 423.318 118.409C426.253 117.946 427.952 117.791 429.342 117.637C441.236 115.939 453.284 114.395 463.324 112.234C456.373 129.678 460.852 144.962 465.641 161.017C467.34 166.575 469.039 172.287 470.275 178.154C470.738 180.16 472.592 181.395 474.6 180.932C475.526 180.778 476.299 180.315 476.762 179.543C481.705 173.059 488.038 163.951 494.988 156.386L500.395 148.822L503.947 140.176L505.337 135.699C506.573 137.089 510.744 143.264 511.979 141.874C522.637 129.37 530.36 116.402 533.295 104.206C537.62 86.7611 529.897 71.3232 497.151 61.5973C498.232 60.671 499.468 59.8991 500.549 59.1272C503.484 57.1203 506.419 55.1134 509.817 53.1064C513.833 50.6364 514.605 48.3207 513.215 46.005C511.207 41.9911 492.98 47.24 487.729 48.6294L488.038 34.1178C487.883 32.1109 486.03 30.7215 484.022 30.8759C482.786 31.0302 481.705 31.6477 481.241 32.7284L475.372 42.4543C475.063 37.2054 474.6 31.4934 473.827 28.4058C473.364 26.862 472.128 25.7813 470.584 25.627C466.722 25.3182 464.251 28.097 462.397 32.574C462.088 33.3459 461.779 34.1178 461.47 35.0441C455.137 24.8551 444.634 20.2237 433.358 18.6799C419.92 16.673 405.246 19.2974 395.824 21.9219C395.361 22.0762 394.743 22.2306 393.971 22.5394C392.117 23.1569 390.881 25.1638 391.499 27.0164C391.963 28.5602 393.353 29.6408 395.052 29.6408C395.979 29.6408 396.905 29.7952 397.987 29.9496C394.28 30.4127 390.881 31.1846 387.792 32.4196C384.085 33.8091 380.841 35.816 377.598 37.9773C376.671 38.5948 376.362 38.7492 376.053 39.0579C372.655 41.3736 370.029 43.2262 370.029 46.005C370.029 47.24 370.493 48.3207 371.419 49.0926L371.265 49.247C356.128 60.8254 352.884 76.4177 349.64 92.3187C347.941 100.192 346.397 108.22 343.153 115.63C341.608 119.181 342.381 121.342 344.852 122.423C345.779 122.886 346.86 122.886 347.787 122.423C350.258 121.651 353.193 119.335 355.51 117.483C355.819 117.174 356.282 116.865 356.591 116.711C356.591 117.174 356.437 117.791 356.437 118.254C355.51 125.047 352.266 134.619 350.876 136.317C349.64 137.861 349.795 140.176 351.339 141.411C351.494 141.72 352.112 142.029 352.884 142.029ZM359.989 131.84C361.379 127.672 362.769 122.886 363.233 119.026C363.542 116.711 363.542 114.704 363.233 113.16C362.769 110.381 361.225 108.529 358.445 108.065C356.745 107.911 354.892 108.374 352.575 109.918C354.274 104.515 355.355 99.1114 356.437 93.7082C359.371 79.1965 362.306 64.9936 375.435 54.959C376.362 54.3415 379.915 53.4152 382.695 52.6433C386.711 51.717 389.8 50.9451 389.8 47.8576C389.8 45.5419 387.638 44.1525 382.077 43.8437C384.703 41.9911 387.329 40.4474 390.264 39.3667C393.353 38.1317 396.597 37.3598 400.458 37.2054C400.767 37.2054 401.076 37.2054 401.385 37.2054C404.629 37.2054 412.197 37.051 413.896 34.1178C415.286 31.8021 414.977 29.6408 411.888 27.7883C411.27 27.3251 410.498 27.0164 409.88 26.5532C416.831 25.4726 424.863 25.0094 432.277 26.0901C443.862 27.7883 454.52 33.3459 458.536 46.4681L458.69 47.0857C458.999 48.3207 460.08 49.4013 461.316 49.7101C463.324 50.1732 465.177 48.9382 465.795 47.0857C466.413 44.3068 467.185 37.8229 467.803 35.6616C468.267 41.6824 467.649 47.8576 469.039 53.724C469.039 54.959 469.657 56.3484 470.738 56.9659C472.9 58.201 474.6 57.8922 475.835 55.5765L482.168 41.6824L482.323 52.1802C482.477 53.8783 483.713 55.2677 485.412 55.5765C486.493 55.7309 489.273 55.1134 492.826 54.3415C493.753 54.1871 494.834 53.8783 495.915 53.4152C492.98 55.4221 490.046 57.7378 486.802 60.3623C486.184 60.8254 485.566 61.5973 485.412 62.3692C484.948 64.3761 486.184 66.383 488.038 66.8462C517.54 66.5374 529.588 87.9961 525.881 102.508C523.873 114.704 518.775 123.503 510.435 133.075L503.638 124.584L495.143 147.123C488.192 155.614 482.94 161.944 475.372 169.508C474.445 165.958 470.275 158.702 469.348 155.305C464.405 138.632 462.86 126.745 472.9 108.837C473.364 108.065 473.518 106.985 473.209 106.058C472.746 104.052 470.738 102.971 468.73 103.434C454.52 107.294 437.838 110.072 423.318 112.079C423.627 108.529 431.814 93.3994 422.083 94.7888C414.977 97.2589 400.921 113.314 388.41 118.1C385.166 119.644 385.321 102.662 377.752 106.985C371.265 113.16 368.176 126.745 359.989 131.84Z" fill="#232834"/>
<path d="M257.89 335.62C272.873 349.206 288.319 355.998 308.554 361.865L309.326 356.924C310.253 350.749 311.643 343.957 313.342 337.627C315.504 328.827 317.976 321.109 319.52 316.632L320.91 312.772L317.358 310.765C303.302 305.362 291.099 297.334 284.612 282.359L278.434 286.219C282.295 292.548 284.766 299.187 290.636 304.436C295.579 308.758 301.603 313.081 309.017 317.403C307.472 322.189 305.619 328.519 303.765 335.466C302.53 340.406 301.294 345.655 300.367 350.595C295.579 349.514 291.099 347.816 286.62 345.346C280.442 341.95 272.719 339.325 264.532 331.452L257.89 335.62Z" fill="#232834"/>
<path fill-rule="evenodd" clip-rule="evenodd" d="M368.021 336.083C366.168 335.311 381.923 332.378 386.402 326.203C389.491 322.035 388.41 308.913 384.24 310.611C380.996 312 357.981 325.586 353.965 320.954C350.104 307.06 352.112 284.675 350.876 274.64C350.104 268.311 331.568 272.942 332.65 282.514C333.731 292.394 332.032 304.436 332.65 310.92C329.56 307.678 328.942 301.811 327.707 297.797C323.691 286.219 315.35 280.97 309.326 287.917C301.757 296.871 312.106 312.772 313.805 323.579C310.253 315.551 299.595 296.871 293.107 301.502C283.994 307.986 287.083 322.035 294.189 333.459C301.294 344.883 303.147 365.57 309.171 368.349C317.976 372.517 334.04 369.584 342.69 366.187C349.331 363.563 376.362 349.977 368.021 336.083Z" fill="#FDD5A5"/>
<path d="M364.469 334.385C363.696 336.238 363.851 337.627 365.241 338.708C365.395 338.862 365.395 339.016 365.395 339.171C366.631 342.258 365.241 345.5 362.77 348.588C359.68 352.293 355.201 355.535 351.03 358.005C347.014 360.321 343.462 362.019 341.608 362.791C337.129 364.643 330.333 366.187 323.845 366.65C318.902 366.959 314.269 366.65 310.87 365.107C309.017 364.335 307.318 358.16 305.155 351.367C303.147 344.729 300.83 337.318 297.432 331.606C293.88 325.894 291.408 319.565 291.254 314.161C291.099 311.228 292.799 301.965 297.432 305.516C299.131 306.906 300.985 309.067 302.839 311.537C306.082 316.168 309.017 321.572 310.562 324.968C311.179 326.512 312.724 327.438 314.423 327.129C316.431 326.821 317.821 324.968 317.512 322.961C316.894 319.256 315.504 315.242 314.114 311.228C311.334 303.355 308.245 294.864 312.261 290.233C313.033 289.306 313.651 288.843 314.423 288.534C315.041 288.38 315.659 288.38 316.277 288.534C317.049 288.689 317.976 289.306 318.748 289.924C320.91 291.776 322.918 294.864 324.309 298.878C324.618 299.804 324.926 301.039 325.235 302.429C326.162 306.134 327.243 310.302 330.024 313.235C330.796 314.007 331.877 314.47 332.958 314.316C334.966 314.161 336.511 312.309 336.202 310.302C335.893 307.832 336.202 304.127 336.357 299.959C336.666 294.247 336.974 287.763 336.202 281.896C335.893 279.581 338.365 277.574 341.145 276.339C342.226 275.875 343.153 275.567 344.234 275.412C349.949 274.332 347.632 285.138 347.632 288.843C347.632 299.495 347.787 312.309 350.413 321.726C350.567 322.189 350.722 322.652 351.185 323.115C356.437 329.136 374.354 319.719 382.541 315.396L384.085 314.625C384.24 315.088 384.394 315.705 384.394 316.323C384.703 319.102 384.394 322.498 383.467 323.733C381.305 326.666 374.509 328.982 370.338 330.526C367.403 331.915 365.395 332.533 364.469 334.385ZM372.655 337.781C372.809 337.781 372.809 337.781 372.655 337.781C377.752 336.083 385.784 333.15 389.337 328.364C391.345 325.585 392.117 320.028 391.654 315.705C391.499 314.007 391.036 312.309 390.573 311.074C389.8 309.221 388.565 307.832 386.866 307.214C385.63 306.751 384.24 306.751 382.849 307.369C382.077 307.678 380.841 308.295 379.297 309.221C373.118 312.463 360.144 319.256 357.363 318.793C355.355 310.302 355.201 298.724 355.201 288.998C355.201 283.131 355.201 277.882 354.738 274.177C354.274 270.472 351.648 268.62 347.941 268.156C346.551 268.002 345.006 268.002 343.307 268.311C341.763 268.62 340.218 269.083 338.674 269.7C333.267 272.016 328.788 276.647 329.406 282.822C329.715 285.91 329.869 289.152 329.715 292.394C328.016 288.998 326.008 286.219 323.691 284.212C321.992 282.822 320.138 281.742 318.285 281.279C316.277 280.661 314.114 280.816 312.106 281.433C310.253 282.051 308.399 283.44 306.855 285.293C303.147 289.77 302.684 295.018 303.611 300.73C303.147 300.267 302.684 299.804 302.066 299.495C298.823 297.025 294.807 295.79 291.254 298.26C286.002 302.12 283.84 307.678 284.149 314.161C284.303 320.954 287.238 328.519 291.408 335.157C294.343 339.943 296.506 346.89 298.359 353.065C300.985 361.556 303.147 369.12 307.936 371.282C312.415 373.443 318.439 373.906 324.463 373.597C331.723 373.134 339.291 371.282 344.543 369.275C346.551 368.503 350.567 366.65 355.046 363.872C359.835 360.938 365.086 357.233 368.794 352.756C372.346 348.588 374.354 343.339 372.655 337.781Z" fill="#232834"/>
<path fill-rule="evenodd" clip-rule="evenodd" d="M313.033 339.017C316.431 328.673 327.707 322.344 344.698 322.189C327.707 326.821 316.586 332.996 313.033 339.017Z" fill="#232834"/>
<path fill-rule="evenodd" clip-rule="evenodd" d="M480.778 192.665C480.16 201.619 484.948 203.78 494.988 198.995C490.2 198.532 485.566 196.525 480.778 192.665Z" fill="#232834"/>
<path fill-rule="evenodd" clip-rule="evenodd" d="M513.833 197.142C521.556 190.504 526.962 185.564 529.588 180.469C532.677 174.294 531.905 165.494 524.491 160.709C520.32 158.084 514.914 157.312 507.191 157.621C517.694 150.211 534.994 157.93 536.23 170.126C537.002 177.227 536.075 180.315 532.368 186.027C530.36 189.578 518.003 196.525 513.833 197.142Z" fill="#232834"/>
<path fill-rule="evenodd" clip-rule="evenodd" d="M368.639 147.432C367.712 166.575 371.574 187.416 364.778 206.25C361.379 215.668 357.363 223.232 352.73 231.569C351.494 233.73 350.258 236.046 348.868 238.361C346.242 242.993 341.608 260.592 341.917 265.223C341.145 263.525 340.836 261.673 340.836 259.666C340.836 249.168 342.381 238.979 344.852 228.79C347.632 216.903 351.648 205.17 355.664 193.591C357.827 187.262 359.989 180.932 361.997 174.448C362.615 172.441 363.233 170.435 363.851 168.273C364.932 164.259 366.013 160.245 366.94 156.232C367.558 153.298 368.021 150.365 368.639 147.432Z" fill="#FAC39D"/>
<path fill-rule="evenodd" clip-rule="evenodd" d="M352.112 147.586C353.038 148.05 357.363 150.828 357.981 151.755C359.062 153.916 360.762 158.239 359.989 160.246C359.835 159.319 359.526 163.179 359.217 162.407C358.754 159.782 357.209 154.379 355.973 152.372C354.12 149.439 352.112 147.586 352.112 147.586Z" fill="#232834"/>
<path fill-rule="evenodd" clip-rule="evenodd" d="M521.556 178.925C524.182 174.912 523.873 164.568 517.076 164.414C509.508 164.105 508.118 167.81 502.866 171.515C499.468 173.985 490.509 176.61 490.972 182.322C491.127 184.483 494.525 186.027 496.07 187.571C505.955 197.296 513.369 191.276 521.556 178.925Z" fill="#FAC39D"/>
<path d="M380.069 705.667C379.915 704.586 381.15 683.899 379.915 682.819C377.289 680.812 374.972 680.966 372.501 684.054C368.793 688.84 369.875 691.155 368.639 695.478C370.956 696.25 375.744 686.833 376.98 686.678C376.98 691.773 370.029 712.305 378.833 713.077C382.077 713.386 387.02 711.224 387.483 706.13C387.638 703.814 388.101 701.653 388.565 699.337C390.727 690.692 391.654 681.429 395.052 673.093C386.402 677.57 385.784 700.109 380.069 705.667Z" fill="black"/>
<path d="M253.72 459.895C268.394 469.004 281.368 470.548 297.432 460.513C283.222 463.6 269.011 463.909 253.72 459.895Z" fill="#232834"/>
<path fill-rule="evenodd" clip-rule="evenodd" d="M413.433 121.96L414.051 112.388L395.979 125.201C394.125 124.43 392.272 123.966 390.418 124.121C393.507 123.04 399.222 118.563 405.401 113.932C410.344 110.072 415.75 106.058 419.302 103.743L418.839 105.132C417.758 108.374 416.831 111.616 417.14 114.086C417.603 117.174 419.302 119.026 423.009 118.409L429.033 117.637C440.927 115.939 452.975 114.395 463.015 112.234C456.064 129.678 460.544 144.962 465.332 161.017C467.031 166.575 468.73 172.287 469.966 178.154C456.991 147.123 452.975 126.437 457.918 116.248C428.57 121.188 413.896 122.731 413.433 121.96Z" fill="#FAC39D"/>
<path fill-rule="evenodd" clip-rule="evenodd" d="M379.451 115.321C380.841 119.798 382.541 124.893 387.792 124.584C387.638 124.584 387.483 124.738 387.174 124.738C385.63 125.356 384.24 126.282 383.004 127.672C381.305 125.51 379.451 122.268 377.443 118.1C378.216 117.019 378.833 116.093 379.451 115.321Z" fill="#FAC39D"/>
<path fill-rule="evenodd" clip-rule="evenodd" d="M203.829 454.646C195.951 440.444 198.886 430.1 212.17 423.308C203.056 432.107 200.431 442.605 203.829 454.646Z" fill="#232834"/>
<path fill-rule="evenodd" clip-rule="evenodd" d="M368.021 110.227C368.021 115.939 367.094 120.107 365.086 124.893C364.777 125.356 364.469 125.973 364.005 126.436C362.615 128.443 361.379 130.296 359.989 131.685C361.379 127.517 362.769 122.731 363.233 118.872C363.542 116.556 363.542 114.549 363.233 113.005C362.769 110.227 361.225 108.374 358.445 107.911C356.745 107.757 354.892 108.22 352.575 109.763C354.274 104.36 355.355 98.957 356.437 93.5537C358.136 85.2172 359.835 77.0351 363.542 69.6249C362.615 72.2494 361.379 78.5789 360.916 79.9683C359.217 85.0628 359.68 90.003 359.68 95.2519C359.68 101.273 362.77 102.508 365.241 104.36C366.786 105.75 368.021 107.139 368.021 110.227Z" fill="#E6AE53"/>
<path fill-rule="evenodd" clip-rule="evenodd" d="M335.43 498.49C346.706 521.493 353.347 549.744 365.241 573.673C375.744 594.514 379.76 638.512 397.832 651.943C391.345 662.904 382.077 664.911 374.2 672.784C366.168 680.812 349.64 713.386 338.056 727.589C340.064 723.266 342.381 718.943 344.543 714.621C356.128 692.853 370.493 672.321 384.394 652.406L385.784 650.399L385.012 648.083C376.208 622.765 367.712 596.521 359.217 570.431C351.494 546.811 343.771 523.191 335.43 498.49Z" fill="#B3B8C1"/>
<path fill-rule="evenodd" clip-rule="evenodd" d="M370.647 485.368L388.256 490.926C389.182 493.704 390.109 496.329 390.881 498.953C385.475 491.389 371.883 487.529 364.623 484.75C359.989 483.052 366.477 483.515 368.485 483.515C378.833 483.515 391.808 483.207 399.84 477.649C393.353 482.589 387.483 485.214 370.647 485.368Z" fill="#74869F"/>
<path fill-rule="evenodd" clip-rule="evenodd" d="M372.037 770.197C371.728 778.534 372.192 783.937 373.118 786.253C371.883 786.407 370.647 786.562 369.411 786.716C369.102 783.474 368.639 780.078 369.411 777.144C370.029 774.52 370.338 772.204 370.647 769.734C370.802 768.19 370.956 766.492 371.11 764.794C371.11 764.331 371.265 764.022 371.265 763.559C371.883 759.082 370.802 762.015 369.875 764.485C369.72 764.949 369.566 765.412 369.411 765.875C368.948 767.11 368.33 768.036 367.867 769.117C366.168 772.359 364.314 774.983 362.152 778.38C361.379 779.615 359.371 782.085 358.136 784.246C357.363 783.937 356.591 783.628 355.664 783.32C357.981 781.004 361.225 776.373 365.704 769.271C366.631 767.727 367.558 766.184 368.639 764.485C369.411 763.096 370.338 761.552 371.265 760.008C371.728 759.236 372.192 758.465 372.655 757.538C372.655 758.465 372.501 759.391 372.501 760.317C372.346 762.015 372.346 763.713 372.192 765.412C372.192 766.955 372.037 768.654 372.037 770.197Z" fill="#74869F"/>
<path fill-rule="evenodd" clip-rule="evenodd" d="M382.695 143.881C385.166 150.674 388.41 155.614 391.963 158.393C392.272 158.547 392.581 158.856 392.889 159.01C396.905 161.789 401.694 162.098 407.1 160.246C404.474 168.273 390.727 166.266 386.865 160.246C384.085 155.769 382.541 149.748 382.695 143.881Z" fill="#F5FBFF"/>
<path fill-rule="evenodd" clip-rule="evenodd" d="M407.254 160.246C421.31 166.575 430.424 165.649 438.147 160.709C437.992 161.017 437.838 161.481 437.683 161.789C433.358 170.898 409.417 167.81 407.254 160.246Z" fill="#F5FBFF"/>
<path fill-rule="evenodd" clip-rule="evenodd" d="M346.242 356.616C359.835 348.125 364.623 342.567 360.607 339.788C357.981 338.399 357.827 335.775 359.989 331.915C371.883 328.519 380.069 324.35 384.549 319.565C384.549 321.417 384.085 323.115 383.467 324.042C381.305 326.975 374.509 329.291 370.338 330.834C367.403 331.915 365.241 332.687 364.469 334.385C363.696 336.238 363.851 337.627 365.241 338.708C365.395 338.862 365.395 339.016 365.395 339.171C366.631 342.258 365.241 345.5 362.769 348.588C359.68 352.293 355.201 355.535 351.03 358.005C347.014 360.321 343.462 362.019 341.608 362.791C337.129 364.643 330.333 366.187 323.845 366.65C318.902 366.959 314.269 366.65 310.87 365.107C329.869 362.945 341.763 360.166 346.242 356.616Z" fill="#FAC39D"/>
<path fill-rule="evenodd" clip-rule="evenodd" d="M287.392 625.544C290.482 631.256 292.799 637.74 294.343 643.761C292.026 650.245 288.01 657.037 281.832 662.132C289.091 645.459 292.49 646.694 287.392 625.544Z" fill="black"/>
<path fill-rule="evenodd" clip-rule="evenodd" d="M441.39 207.022C439.691 207.022 438.301 208.412 438.301 209.956C438.301 211.654 439.691 212.889 441.39 212.889C443.089 212.889 444.48 211.499 444.48 209.956C444.48 208.412 443.089 207.022 441.39 207.022Z" fill="#FAC39D"/>
<path fill-rule="evenodd" clip-rule="evenodd" d="M431.35 212.117C429.651 212.117 428.261 213.506 428.261 215.05C428.261 216.748 429.651 217.983 431.35 217.983C433.049 217.983 434.44 216.594 434.44 215.05C434.285 213.506 433.049 212.117 431.35 212.117Z" fill="#FAC39D"/>
<path fill-rule="evenodd" clip-rule="evenodd" d="M443.244 219.218C441.545 219.218 440.155 220.608 440.155 222.152C440.155 223.85 441.545 225.085 443.244 225.085C444.943 225.085 446.333 223.695 446.333 222.152C446.333 220.608 444.943 219.218 443.244 219.218Z" fill="#FAC39D"/>
<path fill-rule="evenodd" clip-rule="evenodd" d="M372.964 200.847C374.509 201.465 375.435 203.163 374.817 204.707C374.2 206.25 372.501 207.022 370.956 206.405C369.411 205.787 368.485 204.089 369.102 202.545C369.566 201.002 371.419 200.23 372.964 200.847Z" fill="#FAC39D"/>
<path fill-rule="evenodd" clip-rule="evenodd" d="M380.996 211.036C382.541 211.654 383.467 213.352 382.85 214.896C382.232 216.44 380.533 217.211 378.988 216.594C377.443 215.976 376.517 214.278 377.134 212.734C377.598 211.191 379.297 210.419 380.996 211.036Z" fill="#FAC39D"/>
<path fill-rule="evenodd" clip-rule="evenodd" d="M385.321 196.216C386.865 196.833 387.792 198.532 387.174 200.075C386.557 201.619 384.857 202.391 383.313 201.773C381.768 201.156 380.841 199.458 381.459 197.914C382.077 196.525 383.776 195.753 385.321 196.216Z" fill="#FAC39D"/>
<path fill-rule="evenodd" clip-rule="evenodd" d="M406.482 249.631C407.1 250.094 407.409 251.792 407.563 252.564C407.563 253.491 407.718 254.262 406.482 254.262C404.937 254.262 402.621 252.873 400.921 252.719L396.751 252.255C395.361 252.101 396.442 251.947 397.06 251.947C399.222 251.947 404.937 251.329 406.482 249.631Z" fill="white"/>
<path d="M285.995 122.641C286.827 123.754 287.287 125.144 287.192 126.564C287.096 127.984 286.785 129.373 286.257 130.731C285.729 132.089 284.985 133.415 284.18 134.402C283.344 135.605 282.57 136.375 281.827 136.93C280.837 137.669 279.879 138.193 278.735 138.468C277.684 138.868 276.572 138.928 275.584 138.895C274.595 138.863 273.422 138.583 272.496 138.118C271.571 137.653 270.676 136.972 269.937 135.983C269.382 135.241 269.106 134.098 269.17 132.894C269.235 131.69 269.578 130.084 270.168 128.295C270.386 127.554 270.572 127.029 270.635 126.597C270.697 126.165 270.76 125.733 271.039 125.332C271.194 125.023 271.473 124.622 271.751 124.221C272.215 124.068 272.834 123.606 273.452 123.144C273.576 123.051 273.947 122.774 274.287 122.713C274.751 122.559 275.215 122.406 275.678 122.252C276.142 122.098 276.698 122.068 277.162 121.915C277.718 121.885 278.058 121.824 278.614 121.794C281.552 119.792 284.054 120.043 285.995 122.641ZM276.897 52.1601C280.04 56.3651 281.885 60.3825 282.434 64.2124C282.982 68.0422 282.79 71.6547 281.516 75.1109C280.989 76.4686 280.306 78.1348 279.438 79.5537C278.539 81.1887 277.548 82.7 276.525 84.4274C275.41 86.0311 274.263 87.851 273.024 89.5471C271.785 91.2433 270.515 93.1555 269.276 94.8517C269.705 96.4581 270.258 97.9721 270.812 99.4861C271.457 101.124 272.102 102.761 273.057 104.554C273.548 105.728 273.856 106.655 273.823 107.643C273.914 108.539 273.665 109.496 273.323 110.329C272.982 111.162 272.424 111.964 271.527 112.827C270.753 113.597 269.732 114.553 268.618 115.385C268.123 115.754 267.443 115.877 266.795 115.783C266.054 115.565 265.437 115.256 264.727 114.822C264.017 114.389 263.339 113.739 262.753 113.213C262.167 112.687 261.705 112.069 261.336 111.574C260.781 110.832 260.226 110.09 259.888 109.379C259.55 108.668 259.119 107.834 258.935 106.814C258.536 105.764 258.291 104.405 257.862 102.798C257.557 101.1 257.098 98.9372 256.609 96.2191C256.952 94.614 257.387 93.1326 257.915 91.7749C258.443 90.4171 259.094 88.967 259.714 87.7329C260.148 87.0235 260.768 85.7894 261.636 84.3705C262.628 82.8592 263.527 81.2242 264.518 79.7129C265.633 78.1092 266.532 76.4742 267.4 75.0553C268.268 73.6364 268.98 72.5261 269.414 71.8166C269.724 71.1996 269.849 70.3352 269.851 69.5632C269.853 68.7913 269.669 67.772 269.578 66.8764C269.395 65.8571 269.057 65.1463 268.657 64.0957C268.226 63.2612 267.795 62.4267 267.241 61.6847C266.871 61.19 266.285 60.664 265.731 59.922C265.052 59.2724 264.467 58.7464 263.665 58.1892C262.986 57.5396 262.277 57.106 261.691 56.5801C261.105 56.0541 260.704 55.7755 260.488 55.7443C259.87 55.4344 259.346 55.2482 258.45 55.3393C257.678 55.3379 256.874 55.5527 256.07 55.7674C255.267 55.9822 254.556 56.3206 253.721 56.7514C253.01 57.0899 252.391 57.5519 251.772 58.014C250.782 58.7534 249.916 59.4003 249.05 60.0473C248.308 60.6018 247.658 61.28 247.1 62.0818C246.574 62.6676 246.108 63.5932 245.767 64.4263C245.426 65.2594 245.177 66.2162 245.112 67.4203C245.081 67.6364 245.235 68.0999 245.573 68.8107C245.943 69.3054 245.973 69.8612 246.095 70.5408C246.217 71.2203 246.216 71.9923 245.998 72.733C245.78 73.4737 245.315 74.3992 244.51 75.3859C243.705 76.3726 242.684 77.3281 241.199 78.4371C238.229 80.6551 235.727 80.4038 233.602 77.5592C232.955 76.6935 232.463 75.5193 232.218 74.1602C231.974 72.8011 231.977 71.2572 232.011 69.4972C232.138 67.8609 232.512 66.0397 232.886 64.2185C233.384 62.3049 233.975 60.515 234.874 58.88C235.525 57.4299 236.022 56.2882 236.703 55.3939C237.168 54.4684 237.942 53.6978 238.592 53.0196C239.242 52.3414 240.016 51.5708 240.882 50.9239C241.748 50.2769 242.738 49.5376 244.007 48.3973C244.873 47.7504 245.523 47.0722 246.266 46.5177C247.008 45.9631 247.627 45.5011 247.998 45.2238C248.493 44.8541 248.988 44.4844 249.823 44.0536C250.534 43.7152 251.369 43.2843 252.172 43.0696C252.976 42.8548 253.687 42.5164 254.491 42.3017C255.294 42.0869 255.85 42.057 256.406 42.0271C259.187 41.8776 261.38 41.974 263.233 42.1317C265.086 42.2893 266.753 42.9715 268.203 43.6225C269.622 44.4896 271.042 45.3567 272.274 46.7483C273.692 48.3874 275.202 50.1501 276.897 52.1601Z" fill="#C9D0DA"/>
<path fill-rule="evenodd" clip-rule="evenodd" d="M585.194 190.813C597.242 172.596 594.925 156.386 578.552 142.029C587.356 156.232 589.673 172.441 585.194 190.813Z" fill="#232834"/>
<path fill-rule="evenodd" clip-rule="evenodd" d="M599.713 199.767C617.785 172.287 614.387 147.895 589.673 126.282C606.51 148.667 609.753 173.213 599.713 199.767Z" fill="#232834"/>
<path fill-rule="evenodd" clip-rule="evenodd" d="M568.203 185.718C576.544 172.905 574.999 161.635 563.569 151.6C569.748 161.481 571.292 172.905 568.203 185.718Z" fill="#232834"/>
<path d="M214.832 224.88C214.773 225.939 214.361 226.979 213.609 227.763C212.857 228.547 211.994 229.206 211.019 229.742C210.045 230.277 208.959 230.688 208.005 230.871C206.926 231.164 206.095 231.236 205.389 231.196C204.447 231.143 203.63 230.98 202.826 230.58C202.015 230.299 201.335 229.788 200.773 229.285C200.211 228.781 199.662 228.042 199.348 227.316C199.034 226.591 198.845 225.754 198.898 224.813C198.937 224.107 199.336 223.303 199.964 222.63C200.592 221.957 201.579 221.186 202.802 220.429C203.293 220.102 203.659 219.886 203.908 219.664C204.156 219.442 204.405 219.22 204.764 219.122C205.006 219.018 205.366 218.92 205.725 218.822C206.072 218.96 206.66 218.993 207.249 219.026C207.367 219.032 207.72 219.052 207.949 219.183C208.295 219.32 208.642 219.458 208.988 219.595C209.335 219.733 209.675 219.988 210.021 220.125C210.361 220.381 210.59 220.511 210.93 220.767C213.63 221.036 214.97 222.41 214.832 224.88ZM244.065 179.191C243.842 183.192 242.952 186.447 241.395 188.956C239.838 191.465 237.955 193.484 235.515 194.881C234.541 195.417 233.325 196.057 232.121 196.461C230.794 196.977 229.473 197.375 228.028 197.884C226.589 198.275 225.026 198.778 223.47 199.163C221.914 199.548 220.233 200.043 218.677 200.428C218.14 201.578 217.721 202.735 217.303 203.892C216.877 205.166 216.452 206.441 216.131 207.957C215.843 208.885 215.569 209.578 215.065 210.14C214.679 210.708 214.064 211.146 213.456 211.466C212.848 211.786 212.129 211.982 211.18 212.046C210.35 212.118 209.284 212.176 208.225 212.117C207.754 212.09 207.296 211.829 206.963 211.456C206.636 210.965 206.427 210.481 206.225 209.88C206.022 209.278 205.944 208.566 205.859 207.971C205.774 207.376 205.807 206.788 205.833 206.317C205.873 205.611 205.912 204.905 206.063 204.323C206.213 203.742 206.37 203.042 206.763 202.356C207.044 201.546 207.567 200.631 208.104 199.481C208.758 198.337 209.55 196.847 210.596 195.017C211.584 194.247 212.565 193.594 213.539 193.058C214.514 192.523 215.606 191.994 216.573 191.576C217.175 191.374 218.143 190.956 219.346 190.551C220.667 190.153 221.995 189.638 223.315 189.24C224.754 188.848 226.082 188.333 227.285 187.928C228.488 187.523 229.449 187.223 230.051 187.021C230.535 186.812 231.032 186.368 231.411 185.917C231.791 185.466 232.183 184.78 232.569 184.212C232.962 183.525 233.112 182.944 233.393 182.133C233.551 181.434 233.708 180.735 233.747 180.029C233.773 179.558 233.688 178.963 233.728 178.257C233.65 177.544 233.565 176.95 233.369 176.23C233.29 175.518 233.088 174.916 233.003 174.321C232.918 173.727 232.82 173.367 232.709 173.243C232.5 172.759 232.284 172.393 231.715 172.007C231.264 171.627 230.689 171.359 230.114 171.091C229.538 170.822 228.956 170.672 228.257 170.514C227.675 170.364 227.086 170.331 226.498 170.298C225.556 170.245 224.733 170.198 223.909 170.152C223.203 170.113 222.49 170.191 221.77 170.386C221.175 170.471 220.45 170.784 219.841 171.104C219.233 171.424 218.618 171.862 217.991 172.535C217.866 172.646 217.729 172.992 217.578 173.574C217.552 174.045 217.297 174.384 217.035 174.842C216.774 175.299 216.394 175.75 215.904 176.077C215.413 176.403 214.687 176.717 213.733 176.899C212.778 177.081 211.712 177.14 210.3 177.06C207.475 176.902 206.135 175.528 206.286 172.822C206.332 171.999 206.62 171.071 207.143 170.156C207.667 169.241 208.425 168.339 209.308 167.326C210.185 166.431 211.297 165.55 212.408 164.668C213.638 163.792 214.861 163.035 216.188 162.519C217.28 161.99 218.131 161.566 218.968 161.377C219.693 161.064 220.524 160.992 221.237 160.914C221.949 160.836 222.78 160.765 223.604 160.811C224.428 160.857 225.369 160.91 226.67 160.865C227.494 160.911 228.207 160.833 228.913 160.873C229.619 160.912 230.208 160.945 230.561 160.965C231.032 160.992 231.502 161.018 232.202 161.175C232.784 161.326 233.484 161.483 234.059 161.752C234.634 162.02 235.216 162.171 235.791 162.439C236.367 162.707 236.707 162.962 237.047 163.218C238.746 164.493 239.982 165.625 240.989 166.626C241.995 167.626 242.636 168.842 243.165 169.934C243.57 171.137 243.976 172.341 244.014 173.759C244.04 175.413 244.059 177.184 244.065 179.191Z" fill="#D50839"/>
</svg>
